<mxfile host="app.diagrams.net" modified="2022-03-22T01:11:51.692Z" agent="5.0 (Windows NT 10.0; Win64; x64) AppleWebKit/537.36 (KHTML, like Gecko) Chrome/98.0.4758.82 Safari/537.36" etag="NRCUgYW4MFO0BxTrKWkg" version="17.1.3" type="github">
  <diagram id="26pQuWGznM4Nc8gJCP6m" name="Page-1">
    <mxGraphModel dx="1248" dy="677" grid="0" gridSize="10" guides="1" tooltips="1" connect="1" arrows="1" fold="1" page="1" pageScale="1" pageWidth="827" pageHeight="1169" math="1" shadow="0">
      <root>
        <mxCell id="0" />
        <mxCell id="1" parent="0" />
        <mxCell id="oOmBWD5v_Np9IudHWEEX-62" value="&lt;font style=&quot;font-size: 12px&quot;&gt;$$\sum&amp;nbsp;$$&lt;/font&gt;" style="rounded=0;whiteSpace=wrap;html=1;dashed=1;strokeColor=none;fillColor=none;" parent="1" vertex="1">
          <mxGeometry x="530" y="302" width="30" height="30" as="geometry" />
        </mxCell>
        <mxCell id="oOmBWD5v_Np9IudHWEEX-3" value="&lt;font style=&quot;font-size: 18px&quot;&gt;$$x_1$$&lt;/font&gt;" style="rounded=0;whiteSpace=wrap;html=1;dashed=1;strokeColor=none;fillColor=none;" parent="1" vertex="1">
          <mxGeometry x="80" y="240" width="40" height="40" as="geometry" />
        </mxCell>
        <mxCell id="oOmBWD5v_Np9IudHWEEX-13" style="edgeStyle=orthogonalEdgeStyle;rounded=0;orthogonalLoop=1;jettySize=auto;html=1;entryX=0;entryY=0.5;entryDx=0;entryDy=0;fontSize=18;" parent="1" source="oOmBWD5v_Np9IudHWEEX-1" target="oOmBWD5v_Np9IudHWEEX-12" edge="1">
          <mxGeometry relative="1" as="geometry" />
        </mxCell>
        <mxCell id="oOmBWD5v_Np9IudHWEEX-1" value="&lt;font style=&quot;font-size: 10px&quot;&gt;$$0.52$$&lt;/font&gt;" style="rounded=0;whiteSpace=wrap;html=1;fillColor=none;" parent="1" vertex="1">
          <mxGeometry x="120" y="240" width="40" height="40" as="geometry" />
        </mxCell>
        <mxCell id="oOmBWD5v_Np9IudHWEEX-4" value="&lt;font style=&quot;font-size: 18px&quot;&gt;$$x_2$$&lt;/font&gt;" style="rounded=0;whiteSpace=wrap;html=1;dashed=1;strokeColor=none;fillColor=none;" parent="1" vertex="1">
          <mxGeometry x="80" y="280" width="40" height="40" as="geometry" />
        </mxCell>
        <mxCell id="oOmBWD5v_Np9IudHWEEX-23" style="edgeStyle=orthogonalEdgeStyle;rounded=0;orthogonalLoop=1;jettySize=auto;html=1;entryX=0;entryY=0.5;entryDx=0;entryDy=0;fontSize=14;" parent="1" source="oOmBWD5v_Np9IudHWEEX-5" target="oOmBWD5v_Np9IudHWEEX-16" edge="1">
          <mxGeometry relative="1" as="geometry" />
        </mxCell>
        <mxCell id="oOmBWD5v_Np9IudHWEEX-5" value="&lt;font style=&quot;font-size: 10px&quot;&gt;$$0.43$$&lt;/font&gt;" style="rounded=0;whiteSpace=wrap;html=1;fillColor=none;" parent="1" vertex="1">
          <mxGeometry x="120" y="280" width="40" height="40" as="geometry" />
        </mxCell>
        <mxCell id="oOmBWD5v_Np9IudHWEEX-6" value="&lt;font style=&quot;font-size: 18px&quot;&gt;$$x_3$$&lt;/font&gt;" style="rounded=0;whiteSpace=wrap;html=1;dashed=1;strokeColor=none;fillColor=none;" parent="1" vertex="1">
          <mxGeometry x="80" y="320" width="40" height="40" as="geometry" />
        </mxCell>
        <mxCell id="oOmBWD5v_Np9IudHWEEX-24" style="edgeStyle=orthogonalEdgeStyle;rounded=0;orthogonalLoop=1;jettySize=auto;html=1;entryX=0;entryY=0.5;entryDx=0;entryDy=0;fontSize=14;" parent="1" source="oOmBWD5v_Np9IudHWEEX-7" target="oOmBWD5v_Np9IudHWEEX-17" edge="1">
          <mxGeometry relative="1" as="geometry" />
        </mxCell>
        <mxCell id="oOmBWD5v_Np9IudHWEEX-7" value="&lt;font style=&quot;font-size: 10px&quot;&gt;$$0.71$$&lt;/font&gt;" style="rounded=0;whiteSpace=wrap;html=1;fillColor=none;" parent="1" vertex="1">
          <mxGeometry x="120" y="320" width="40" height="40" as="geometry" />
        </mxCell>
        <mxCell id="oOmBWD5v_Np9IudHWEEX-8" value="&lt;font style=&quot;font-size: 18px&quot;&gt;$$x_4$$&lt;/font&gt;" style="rounded=0;whiteSpace=wrap;html=1;dashed=1;strokeColor=none;fillColor=none;" parent="1" vertex="1">
          <mxGeometry x="80" y="360" width="40" height="40" as="geometry" />
        </mxCell>
        <mxCell id="oOmBWD5v_Np9IudHWEEX-25" style="edgeStyle=orthogonalEdgeStyle;rounded=0;orthogonalLoop=1;jettySize=auto;html=1;entryX=0;entryY=0.5;entryDx=0;entryDy=0;fontSize=14;" parent="1" source="oOmBWD5v_Np9IudHWEEX-9" target="oOmBWD5v_Np9IudHWEEX-18" edge="1">
          <mxGeometry relative="1" as="geometry" />
        </mxCell>
        <mxCell id="oOmBWD5v_Np9IudHWEEX-9" value="&lt;font style=&quot;font-size: 10px&quot;&gt;$$0.18$$&lt;/font&gt;" style="rounded=0;whiteSpace=wrap;html=1;fillColor=none;" parent="1" vertex="1">
          <mxGeometry x="120" y="360" width="40" height="40" as="geometry" />
        </mxCell>
        <mxCell id="oOmBWD5v_Np9IudHWEEX-10" value="&lt;span style=&quot;font-size: 10px&quot;&gt;$$&amp;nbsp;\vdots&amp;nbsp;$$&lt;/span&gt;" style="rounded=0;whiteSpace=wrap;html=1;dashed=1;strokeColor=none;fillColor=none;" parent="1" vertex="1">
          <mxGeometry x="80" y="400" width="40" height="40" as="geometry" />
        </mxCell>
        <mxCell id="oOmBWD5v_Np9IudHWEEX-11" value="&lt;font style=&quot;font-size: 10px&quot;&gt;$$&amp;nbsp;\vdots&amp;nbsp;$$&lt;/font&gt;" style="rounded=0;whiteSpace=wrap;html=1;fillColor=none;" parent="1" vertex="1">
          <mxGeometry x="120" y="400" width="40" height="40" as="geometry" />
        </mxCell>
        <mxCell id="oOmBWD5v_Np9IudHWEEX-12" value="&lt;font style=&quot;font-size: 14px&quot;&gt;$$v_1$$&lt;/font&gt;" style="rounded=0;whiteSpace=wrap;html=1;fillColor=none;" parent="1" vertex="1">
          <mxGeometry x="200" y="250" width="80" height="20" as="geometry" />
        </mxCell>
        <mxCell id="oOmBWD5v_Np9IudHWEEX-14" value="&lt;font style=&quot;font-size: 14px&quot;&gt;$$v_{1} \circ v_{2}$$&lt;/font&gt;" style="rounded=0;whiteSpace=wrap;html=1;fillColor=none;" parent="1" vertex="1">
          <mxGeometry x="320" y="240" width="80" height="20" as="geometry" />
        </mxCell>
        <mxCell id="oOmBWD5v_Np9IudHWEEX-16" value="&lt;font style=&quot;font-size: 14px&quot;&gt;$$v_2$$&lt;/font&gt;" style="rounded=0;whiteSpace=wrap;html=1;fillColor=none;" parent="1" vertex="1">
          <mxGeometry x="200" y="290" width="80" height="20" as="geometry" />
        </mxCell>
        <mxCell id="oOmBWD5v_Np9IudHWEEX-17" value="&lt;font style=&quot;font-size: 14px&quot;&gt;$$v_3$$&lt;/font&gt;" style="rounded=0;whiteSpace=wrap;html=1;fillColor=none;" parent="1" vertex="1">
          <mxGeometry x="200" y="330" width="80" height="20" as="geometry" />
        </mxCell>
        <mxCell id="oOmBWD5v_Np9IudHWEEX-18" value="&lt;font style=&quot;font-size: 14px&quot;&gt;$$v_4$$&lt;/font&gt;" style="rounded=0;whiteSpace=wrap;html=1;fillColor=none;" parent="1" vertex="1">
          <mxGeometry x="200" y="370" width="80" height="20" as="geometry" />
        </mxCell>
        <mxCell id="oOmBWD5v_Np9IudHWEEX-26" value="&lt;span style=&quot;font-size: 14px&quot;&gt;$$v_{1} \circ v_{3}$$&lt;/span&gt;" style="rounded=0;whiteSpace=wrap;html=1;fillColor=none;" parent="1" vertex="1">
          <mxGeometry x="320" y="268" width="80" height="20" as="geometry" />
        </mxCell>
        <mxCell id="oOmBWD5v_Np9IudHWEEX-27" value="&lt;span style=&quot;font-size: 14px&quot;&gt;$$v_{2} \circ v_{3}$$&lt;/span&gt;" style="rounded=0;whiteSpace=wrap;html=1;fillColor=none;" parent="1" vertex="1">
          <mxGeometry x="320" y="297" width="80" height="20" as="geometry" />
        </mxCell>
        <mxCell id="oOmBWD5v_Np9IudHWEEX-29" value="&lt;font style=&quot;font-size: 14px&quot;&gt;$$v_{1} \circ v_{4}$$&lt;/font&gt;" style="rounded=0;whiteSpace=wrap;html=1;fillColor=none;" parent="1" vertex="1">
          <mxGeometry x="320" y="325" width="80" height="20" as="geometry" />
        </mxCell>
        <mxCell id="oOmBWD5v_Np9IudHWEEX-30" value="&lt;font style=&quot;font-size: 14px&quot;&gt;$$v_{2} \circ v_{4}$$&lt;/font&gt;" style="rounded=0;whiteSpace=wrap;html=1;fillColor=none;" parent="1" vertex="1">
          <mxGeometry x="320" y="352" width="80" height="20" as="geometry" />
        </mxCell>
        <mxCell id="oOmBWD5v_Np9IudHWEEX-31" value="&lt;font style=&quot;font-size: 14px&quot;&gt;$$v_{3} \circ v_{4}$$&lt;/font&gt;" style="rounded=0;whiteSpace=wrap;html=1;fillColor=none;" parent="1" vertex="1">
          <mxGeometry x="320" y="380" width="80" height="20" as="geometry" />
        </mxCell>
        <mxCell id="oOmBWD5v_Np9IudHWEEX-33" value="" style="endArrow=classic;html=1;rounded=0;fontSize=14;exitX=1;exitY=0.5;exitDx=0;exitDy=0;entryX=0;entryY=0.5;entryDx=0;entryDy=0;" parent="1" source="oOmBWD5v_Np9IudHWEEX-12" target="oOmBWD5v_Np9IudHWEEX-14" edge="1">
          <mxGeometry width="50" height="50" relative="1" as="geometry">
            <mxPoint x="300" y="380" as="sourcePoint" />
            <mxPoint x="350" y="330" as="targetPoint" />
          </mxGeometry>
        </mxCell>
        <mxCell id="oOmBWD5v_Np9IudHWEEX-35" value="" style="endArrow=classic;html=1;rounded=0;fontSize=14;exitX=1;exitY=0.5;exitDx=0;exitDy=0;entryX=0;entryY=0.5;entryDx=0;entryDy=0;" parent="1" source="oOmBWD5v_Np9IudHWEEX-16" target="oOmBWD5v_Np9IudHWEEX-14" edge="1">
          <mxGeometry width="50" height="50" relative="1" as="geometry">
            <mxPoint x="290" y="270" as="sourcePoint" />
            <mxPoint x="330" y="290" as="targetPoint" />
          </mxGeometry>
        </mxCell>
        <mxCell id="oOmBWD5v_Np9IudHWEEX-36" value="" style="endArrow=classic;html=1;rounded=0;fontSize=14;exitX=1;exitY=0.5;exitDx=0;exitDy=0;entryX=0;entryY=0.5;entryDx=0;entryDy=0;" parent="1" source="oOmBWD5v_Np9IudHWEEX-12" target="oOmBWD5v_Np9IudHWEEX-29" edge="1">
          <mxGeometry width="50" height="50" relative="1" as="geometry">
            <mxPoint x="290" y="270" as="sourcePoint" />
            <mxPoint x="320" y="320" as="targetPoint" />
          </mxGeometry>
        </mxCell>
        <mxCell id="oOmBWD5v_Np9IudHWEEX-40" value="" style="endArrow=classic;html=1;rounded=0;fontSize=14;entryX=0;entryY=0.5;entryDx=0;entryDy=0;" parent="1" target="oOmBWD5v_Np9IudHWEEX-26" edge="1">
          <mxGeometry width="50" height="50" relative="1" as="geometry">
            <mxPoint x="280" y="260" as="sourcePoint" />
            <mxPoint x="330" y="260" as="targetPoint" />
          </mxGeometry>
        </mxCell>
        <mxCell id="oOmBWD5v_Np9IudHWEEX-41" value="" style="endArrow=classic;html=1;rounded=0;fontSize=14;exitX=1;exitY=0.5;exitDx=0;exitDy=0;entryX=0;entryY=0.5;entryDx=0;entryDy=0;" parent="1" source="oOmBWD5v_Np9IudHWEEX-16" target="oOmBWD5v_Np9IudHWEEX-27" edge="1">
          <mxGeometry width="50" height="50" relative="1" as="geometry">
            <mxPoint x="300" y="280" as="sourcePoint" />
            <mxPoint x="340" y="270" as="targetPoint" />
          </mxGeometry>
        </mxCell>
        <mxCell id="oOmBWD5v_Np9IudHWEEX-42" value="" style="endArrow=classic;html=1;rounded=0;fontSize=14;exitX=1;exitY=0.5;exitDx=0;exitDy=0;entryX=0;entryY=0.5;entryDx=0;entryDy=0;" parent="1" source="oOmBWD5v_Np9IudHWEEX-16" target="oOmBWD5v_Np9IudHWEEX-30" edge="1">
          <mxGeometry width="50" height="50" relative="1" as="geometry">
            <mxPoint x="310" y="290" as="sourcePoint" />
            <mxPoint x="350" y="280" as="targetPoint" />
          </mxGeometry>
        </mxCell>
        <mxCell id="oOmBWD5v_Np9IudHWEEX-43" value="" style="endArrow=classic;html=1;rounded=0;fontSize=14;exitX=1;exitY=0.5;exitDx=0;exitDy=0;entryX=0;entryY=0.5;entryDx=0;entryDy=0;" parent="1" source="oOmBWD5v_Np9IudHWEEX-17" target="oOmBWD5v_Np9IudHWEEX-26" edge="1">
          <mxGeometry width="50" height="50" relative="1" as="geometry">
            <mxPoint x="320" y="300" as="sourcePoint" />
            <mxPoint x="360" y="290" as="targetPoint" />
          </mxGeometry>
        </mxCell>
        <mxCell id="oOmBWD5v_Np9IudHWEEX-44" value="" style="endArrow=classic;html=1;rounded=0;fontSize=14;exitX=1;exitY=0.5;exitDx=0;exitDy=0;entryX=0;entryY=0.5;entryDx=0;entryDy=0;" parent="1" source="oOmBWD5v_Np9IudHWEEX-17" target="oOmBWD5v_Np9IudHWEEX-27" edge="1">
          <mxGeometry width="50" height="50" relative="1" as="geometry">
            <mxPoint x="330" y="310" as="sourcePoint" />
            <mxPoint x="370" y="300" as="targetPoint" />
          </mxGeometry>
        </mxCell>
        <mxCell id="oOmBWD5v_Np9IudHWEEX-45" value="" style="endArrow=classic;html=1;rounded=0;fontSize=14;exitX=1;exitY=0.5;exitDx=0;exitDy=0;entryX=0;entryY=0.5;entryDx=0;entryDy=0;" parent="1" source="oOmBWD5v_Np9IudHWEEX-17" target="oOmBWD5v_Np9IudHWEEX-31" edge="1">
          <mxGeometry width="50" height="50" relative="1" as="geometry">
            <mxPoint x="340" y="320" as="sourcePoint" />
            <mxPoint x="380" y="310" as="targetPoint" />
          </mxGeometry>
        </mxCell>
        <mxCell id="oOmBWD5v_Np9IudHWEEX-46" value="" style="endArrow=classic;html=1;rounded=0;fontSize=14;exitX=1;exitY=0.5;exitDx=0;exitDy=0;entryX=0;entryY=0.5;entryDx=0;entryDy=0;" parent="1" source="oOmBWD5v_Np9IudHWEEX-18" target="oOmBWD5v_Np9IudHWEEX-31" edge="1">
          <mxGeometry width="50" height="50" relative="1" as="geometry">
            <mxPoint x="350" y="330" as="sourcePoint" />
            <mxPoint x="390" y="320" as="targetPoint" />
          </mxGeometry>
        </mxCell>
        <mxCell id="oOmBWD5v_Np9IudHWEEX-47" value="" style="endArrow=classic;html=1;rounded=0;fontSize=14;exitX=1;exitY=0.5;exitDx=0;exitDy=0;entryX=0;entryY=0.5;entryDx=0;entryDy=0;" parent="1" source="oOmBWD5v_Np9IudHWEEX-18" target="oOmBWD5v_Np9IudHWEEX-30" edge="1">
          <mxGeometry width="50" height="50" relative="1" as="geometry">
            <mxPoint x="360" y="340" as="sourcePoint" />
            <mxPoint x="400" y="330" as="targetPoint" />
          </mxGeometry>
        </mxCell>
        <mxCell id="oOmBWD5v_Np9IudHWEEX-48" value="" style="endArrow=classic;html=1;rounded=0;fontSize=14;exitX=1;exitY=0.5;exitDx=0;exitDy=0;entryX=0;entryY=0.5;entryDx=0;entryDy=0;" parent="1" source="oOmBWD5v_Np9IudHWEEX-18" target="oOmBWD5v_Np9IudHWEEX-29" edge="1">
          <mxGeometry width="50" height="50" relative="1" as="geometry">
            <mxPoint x="370" y="350" as="sourcePoint" />
            <mxPoint x="410" y="340" as="targetPoint" />
          </mxGeometry>
        </mxCell>
        <mxCell id="oOmBWD5v_Np9IudHWEEX-50" value="&lt;font style=&quot;font-size: 12px&quot; face=&quot;Times New Roman&quot;&gt;&lt;b&gt;Self-Attention Layer&lt;/b&gt;&lt;/font&gt;" style="rounded=0;whiteSpace=wrap;html=1;fillColor=#E6E6E6;rotation=-90;" parent="1" vertex="1">
          <mxGeometry x="433.58" y="286.59" width="118.59" height="62.75" as="geometry" />
        </mxCell>
        <mxCell id="oOmBWD5v_Np9IudHWEEX-52" value="" style="rounded=0;whiteSpace=wrap;html=1;dashed=1;fillColor=none;" parent="1" vertex="1">
          <mxGeometry x="569" y="258" width="91" height="120" as="geometry" />
        </mxCell>
        <mxCell id="oOmBWD5v_Np9IudHWEEX-53" value="&lt;font face=&quot;Times New Roman&quot;&gt;$$\hat{y}_{SANFM}&amp;nbsp;&lt;br&gt;$$&lt;/font&gt;" style="rounded=0;whiteSpace=wrap;html=1;fillColor=#E6E6E6;" parent="1" vertex="1">
          <mxGeometry x="700" y="303" width="60" height="30" as="geometry" />
        </mxCell>
        <mxCell id="oOmBWD5v_Np9IudHWEEX-54" value="" style="endArrow=classic;html=1;rounded=0;fontSize=14;exitX=1;exitY=0.5;exitDx=0;exitDy=0;entryX=0.5;entryY=0;entryDx=0;entryDy=0;" parent="1" source="oOmBWD5v_Np9IudHWEEX-14" target="oOmBWD5v_Np9IudHWEEX-50" edge="1">
          <mxGeometry width="50" height="50" relative="1" as="geometry">
            <mxPoint x="290" y="270" as="sourcePoint" />
            <mxPoint x="460" y="320" as="targetPoint" />
          </mxGeometry>
        </mxCell>
        <mxCell id="oOmBWD5v_Np9IudHWEEX-55" value="" style="endArrow=classic;html=1;rounded=0;fontSize=14;exitX=1;exitY=0.5;exitDx=0;exitDy=0;entryX=0.5;entryY=0;entryDx=0;entryDy=0;" parent="1" source="oOmBWD5v_Np9IudHWEEX-26" target="oOmBWD5v_Np9IudHWEEX-50" edge="1">
          <mxGeometry width="50" height="50" relative="1" as="geometry">
            <mxPoint x="410" y="260" as="sourcePoint" />
            <mxPoint x="430" y="310" as="targetPoint" />
          </mxGeometry>
        </mxCell>
        <mxCell id="oOmBWD5v_Np9IudHWEEX-56" value="" style="endArrow=classic;html=1;rounded=0;fontSize=14;exitX=1;exitY=0.5;exitDx=0;exitDy=0;" parent="1" source="oOmBWD5v_Np9IudHWEEX-27" edge="1">
          <mxGeometry width="50" height="50" relative="1" as="geometry">
            <mxPoint x="420" y="270" as="sourcePoint" />
            <mxPoint x="460" y="320" as="targetPoint" />
          </mxGeometry>
        </mxCell>
        <mxCell id="oOmBWD5v_Np9IudHWEEX-57" value="" style="endArrow=classic;html=1;rounded=0;fontSize=14;exitX=1;exitY=0.5;exitDx=0;exitDy=0;entryX=0.5;entryY=0;entryDx=0;entryDy=0;" parent="1" source="oOmBWD5v_Np9IudHWEEX-29" target="oOmBWD5v_Np9IudHWEEX-50" edge="1">
          <mxGeometry width="50" height="50" relative="1" as="geometry">
            <mxPoint x="430" y="280" as="sourcePoint" />
            <mxPoint x="470" y="350" as="targetPoint" />
          </mxGeometry>
        </mxCell>
        <mxCell id="oOmBWD5v_Np9IudHWEEX-58" value="" style="endArrow=classic;html=1;rounded=0;fontSize=14;exitX=1;exitY=0.5;exitDx=0;exitDy=0;entryX=0.5;entryY=0;entryDx=0;entryDy=0;" parent="1" source="oOmBWD5v_Np9IudHWEEX-30" target="oOmBWD5v_Np9IudHWEEX-50" edge="1">
          <mxGeometry width="50" height="50" relative="1" as="geometry">
            <mxPoint x="440" y="290" as="sourcePoint" />
            <mxPoint x="480" y="360" as="targetPoint" />
          </mxGeometry>
        </mxCell>
        <mxCell id="oOmBWD5v_Np9IudHWEEX-59" value="" style="endArrow=classic;html=1;rounded=0;fontSize=14;exitX=1;exitY=0.5;exitDx=0;exitDy=0;" parent="1" source="oOmBWD5v_Np9IudHWEEX-31" edge="1">
          <mxGeometry width="50" height="50" relative="1" as="geometry">
            <mxPoint x="400" y="250" as="sourcePoint" />
            <mxPoint x="460" y="320" as="targetPoint" />
          </mxGeometry>
        </mxCell>
        <mxCell id="oOmBWD5v_Np9IudHWEEX-60" value="" style="endArrow=classic;html=1;rounded=0;fontSize=14;exitX=0.5;exitY=1;exitDx=0;exitDy=0;entryX=0;entryY=0.5;entryDx=0;entryDy=0;startArrow=none;" parent="1" source="oOmBWD5v_Np9IudHWEEX-50" target="oOmBWD5v_Np9IudHWEEX-52" edge="1">
          <mxGeometry width="50" height="50" relative="1" as="geometry">
            <mxPoint x="419" y="260" as="sourcePoint" />
            <mxPoint x="459" y="330" as="targetPoint" />
          </mxGeometry>
        </mxCell>
        <mxCell id="oOmBWD5v_Np9IudHWEEX-61" value="" style="endArrow=classic;html=1;rounded=0;fontSize=14;exitX=1;exitY=0.5;exitDx=0;exitDy=0;entryX=0;entryY=0.5;entryDx=0;entryDy=0;" parent="1" source="oOmBWD5v_Np9IudHWEEX-52" target="oOmBWD5v_Np9IudHWEEX-53" edge="1">
          <mxGeometry width="50" height="50" relative="1" as="geometry">
            <mxPoint x="438" y="268" as="sourcePoint" />
            <mxPoint x="478" y="338" as="targetPoint" />
          </mxGeometry>
        </mxCell>
        <mxCell id="oOmBWD5v_Np9IudHWEEX-64" value="&lt;font face=&quot;Times New Roman&quot; style=&quot;font-size: 12px&quot;&gt;$$Embedding\; Layer$$&lt;/font&gt;" style="rounded=0;whiteSpace=wrap;html=1;dashed=1;strokeColor=none;fillColor=none;fontStyle=0" parent="1" vertex="1">
          <mxGeometry x="200" y="402" width="80" height="40" as="geometry" />
        </mxCell>
        <mxCell id="oOmBWD5v_Np9IudHWEEX-68" value="&lt;font face=&quot;Times New Roman&quot;&gt;$$Self-Attention\;Layer$$&lt;/font&gt;" style="rounded=0;whiteSpace=wrap;html=1;dashed=1;strokeColor=none;fillColor=none;fontStyle=0" parent="1" vertex="1">
          <mxGeometry x="444" y="440" width="100" height="40" as="geometry" />
        </mxCell>
        <mxCell id="oOmBWD5v_Np9IudHWEEX-69" value="&lt;font face=&quot;Times New Roman&quot; style=&quot;font-size: 12px&quot;&gt;$$Deep\;Layer$$&lt;/font&gt;" style="rounded=0;whiteSpace=wrap;html=1;dashed=1;strokeColor=none;fillColor=none;fontStyle=0" parent="1" vertex="1">
          <mxGeometry x="574.5" y="440" width="80" height="40" as="geometry" />
        </mxCell>
        <mxCell id="oOmBWD5v_Np9IudHWEEX-70" value="&lt;font face=&quot;Times New Roman&quot; style=&quot;font-size: 12px&quot;&gt;$$Prediction$$&lt;/font&gt;" style="rounded=0;whiteSpace=wrap;html=1;dashed=1;strokeColor=none;fillColor=none;fontStyle=0" parent="1" vertex="1">
          <mxGeometry x="695" y="440" width="70" height="40" as="geometry" />
        </mxCell>
        <mxCell id="oOmBWD5v_Np9IudHWEEX-71" value="&lt;font face=&quot;Times New Roman&quot; style=&quot;font-size: 12px&quot;&gt;$$Input$$&lt;/font&gt;" style="rounded=0;whiteSpace=wrap;html=1;dashed=1;strokeColor=none;fillColor=none;fontStyle=0" parent="1" vertex="1">
          <mxGeometry x="100" y="440" width="80" height="40" as="geometry" />
        </mxCell>
        <mxCell id="oOmBWD5v_Np9IudHWEEX-72" value="&lt;font face=&quot;Times New Roman&quot; style=&quot;font-size: 12px&quot;&gt;$$Interaction\;Layer$$&lt;/font&gt;" style="rounded=0;whiteSpace=wrap;html=1;dashed=1;strokeColor=none;fillColor=none;fontStyle=0" parent="1" vertex="1">
          <mxGeometry x="310" y="402" width="100" height="40" as="geometry" />
        </mxCell>
        <mxCell id="PUxkBMsNcQd4sYksjn2E-1" value="" style="shape=curlyBracket;whiteSpace=wrap;html=1;rounded=1;rotation=-90;" parent="1" vertex="1">
          <mxGeometry x="290" y="380" width="20" height="120" as="geometry" />
        </mxCell>
        <mxCell id="PUxkBMsNcQd4sYksjn2E-3" value="&lt;font face=&quot;Times New Roman&quot; style=&quot;font-size: 12px&quot;&gt;$$Factorization\;Layer$$&lt;/font&gt;" style="rounded=0;whiteSpace=wrap;html=1;dashed=1;strokeColor=none;fillColor=none;fontStyle=0" parent="1" vertex="1">
          <mxGeometry x="250" y="442" width="100" height="40" as="geometry" />
        </mxCell>
        <mxCell id="PUxkBMsNcQd4sYksjn2E-5" value="&lt;font style=&quot;font-size: 12px&quot; face=&quot;Times New Roman&quot;&gt;&lt;b&gt;&lt;i&gt;Layer&amp;nbsp; &amp;nbsp; 1&lt;/i&gt;&lt;/b&gt;&lt;/font&gt;" style="rounded=0;whiteSpace=wrap;html=1;fillColor=#E6E6E6;rotation=-90;" parent="1" vertex="1">
          <mxGeometry x="531.42" y="307.29" width="101.95" height="17.35" as="geometry" />
        </mxCell>
        <mxCell id="PUxkBMsNcQd4sYksjn2E-6" value="&lt;font style=&quot;font-size: 12px&quot; face=&quot;Times New Roman&quot;&gt;&lt;b&gt;&lt;i&gt;Layer&amp;nbsp; &amp;nbsp; L &amp;nbsp;&lt;/i&gt;&lt;/b&gt;&lt;/font&gt;" style="rounded=0;whiteSpace=wrap;html=1;fillColor=#E6E6E6;rotation=-90;" parent="1" vertex="1">
          <mxGeometry x="595" y="307.29" width="101.95" height="17.35" as="geometry" />
        </mxCell>
        <mxCell id="PUxkBMsNcQd4sYksjn2E-7" value="" style="endArrow=classic;html=1;rounded=0;fontSize=14;exitX=0.5;exitY=1;exitDx=0;exitDy=0;" parent="1" source="PUxkBMsNcQd4sYksjn2E-5" edge="1">
          <mxGeometry width="50" height="50" relative="1" as="geometry">
            <mxPoint x="690" y="328" as="sourcePoint" />
            <mxPoint x="610" y="316" as="targetPoint" />
          </mxGeometry>
        </mxCell>
        <mxCell id="PUxkBMsNcQd4sYksjn2E-8" value="&lt;font face=&quot;Times New Roman&quot; style=&quot;font-size: 12px&quot;&gt;$$...$$&lt;/font&gt;" style="rounded=0;whiteSpace=wrap;html=1;dashed=1;strokeColor=none;fillColor=none;fontStyle=0" parent="1" vertex="1">
          <mxGeometry x="611.37" y="308" width="20" height="10" as="geometry" />
        </mxCell>
      </root>
    </mxGraphModel>
  </diagram>
</mxfile>
